<svg width="22" height="23" viewBox="0 0 22 23" fill="none" xmlns="http://www.w3.org/2000/svg">
<g id="blind 1" clip-path="url(#clip0_111_6)">
<g id="Group">
<path id="Vector" d="M20.2227 2.11863C19.9542 1.84973 19.6024 1.71545 19.2505 1.71545C18.8986 1.71545 18.5468 1.84973 18.2784 2.11863L1.77735 18.6193C1.24007 19.1564 1.24007 20.0266 1.77735 20.5637C2.04591 20.8322 2.39773 20.9665 2.74951 20.9665C3.10147 20.9665 3.45313 20.8322 3.72168 20.5637L20.2227 4.06296C20.7599 3.52586 20.7599 2.6554 20.2227 2.11863Z" fill="#C5C5C5"/>
<path id="Vector_2" d="M3.14968 15.3026L6.89627 11.556C6.89364 11.4834 6.87488 11.415 6.87488 11.3411C6.87488 9.0691 8.72386 7.21847 10.996 7.21572C10.9973 7.21444 11.0001 7.21444 11.0028 7.21572C11.0028 7.21572 11.0028 7.21572 11.004 7.21572C11.0766 7.21572 11.1437 7.2332 11.2147 7.23723L13.683 4.76919C12.8544 4.59194 11.9829 4.4657 11.0067 4.4657C11.0067 4.4657 11.0067 4.4657 11.0054 4.4657C11.004 4.4657 11.0028 4.4657 11 4.4657C11 4.4657 10.9972 4.4657 10.9946 4.4657C10.9933 4.4657 10.9933 4.4657 10.9933 4.4657C5.65816 4.46845 2.69314 7.36887 0.284013 10.5028C-0.0946709 10.9973 -0.0946709 11.6848 0.284013 12.179C1.13952 13.2921 2.07276 14.368 3.14968 15.3026Z" fill="#C5C5C5"/>
<path id="Vector_3" d="M21.7161 10.5028C20.8606 9.39007 19.9274 8.31409 18.8504 7.37952L15.1039 11.1262C15.1065 11.1987 15.1253 11.2672 15.1253 11.341C15.1253 13.613 13.2763 15.4634 11.0042 15.4664C11.0029 15.4664 11.0029 15.4664 11.0029 15.4664C11.0029 15.4664 11.0015 15.4664 11.0001 15.4664C10.9988 15.4664 10.9974 15.4664 10.9974 15.4664C10.9974 15.4664 10.9974 15.4664 10.9961 15.4664C10.9236 15.4664 10.8565 15.4486 10.7852 15.4449L8.31717 17.9129C9.14571 18.0902 10.0172 18.2164 10.9935 18.2164C10.9935 18.2164 10.9935 18.2164 10.9948 18.2164H10.9961C10.9974 18.2164 11.0001 18.2164 11.0001 18.2164C11.0001 18.2164 11.0015 18.2164 11.0029 18.2164C11.0029 18.2164 11.0029 18.2164 11.0042 18.2164H11.0055C11.0069 18.2164 11.0069 18.2164 11.0069 18.2164C11.0109 18.2164 11.0163 18.2164 11.0216 18.2164C11.027 18.2151 11.0324 18.2151 11.0405 18.2164C16.3528 18.2016 19.3111 15.3066 21.7161 12.179C22.0947 11.6849 22.0947 10.9974 21.7161 10.5028Z" fill="#C5C5C5"/>
</g>
</g>
<defs>
<clipPath id="clip0_111_6">
<rect width="22" height="22" fill="white" transform="translate(0 0.340942)"/>
</clipPath>
</defs>
</svg>
